<svg width="547" height="548" viewBox="0 0 547 548" fill="none" xmlns="http://www.w3.org/2000/svg">
<g clip-path="url(#clip0_4_42)">
<path d="M222.556 543.26C134.922 526.737 60.624 468.812 23.5687 385.56C55.7419 358.396 99.1382 350.471 139.598 362.348C214.195 384.229 258.358 468.175 222.556 543.26Z" fill="#F5A623"/>
<path d="M172.201 347.83C164.382 345.338 159.762 343.071 152.991 339.231L241.187 1.76099C287.164 -3.3346 334.302 2.52907 377.492 20.8694L172.183 347.83H172.201Z" fill="#E8821A"/>
<path d="M237.67 408.396L225.867 391.404L497.225 116.262C524.685 155.116 540.565 198.746 546.121 245.206L237.651 408.396H237.67Z" fill="#E8821A"/>
<path d="M195.022 362.592C194.255 358.227 198.707 351.539 201.999 346.275L399.976 31.1168C431.962 47.7336 459.104 69.3711 482.223 96.7599L209.743 372.933L195.022 362.592Z" fill="#E8821A"/>
<path d="M109.164 331.775L97.0994 64.4067C130.9 36.2311 170.387 16.1485 214.681 6.42566L129.067 333.349C121.828 334.229 118.031 333.929 109.146 331.775H109.164Z" fill="#E8821A"/>
<path d="M255.627 448.805C252.223 443.353 250.614 436.796 249.249 429.921L546.906 272.483C548.141 316.844 537.105 359.501 517.333 399.76L255.627 448.805Z" fill="#E8821A"/>
<path d="M66.2356 336.927L13.6923 189.117C25.9256 153.13 45.6036 115.456 73.5306 88.1423L84.7351 333.386L66.2169 336.927H66.2356Z" fill="#E8821A"/>
<path d="M260.378 491.761C259.462 485.523 259.2 480.09 259.256 472.953L499.133 428.216C477.454 462.78 448.385 488.577 414.099 508.79L260.359 491.78L260.378 491.761Z" fill="#E8821A"/>
<path d="M42.6107 344.195L14.029 360.906C1.94533 320.909 -4.54542 279.002 3.68493 235.558L42.6107 344.195Z" fill="#E8821A"/>
<path d="M248.276 547.401C252.241 535.786 254.879 528.067 256.974 516.171L369.991 529.098C331.421 546.82 290.064 549.443 248.276 547.401Z" fill="#E8821A"/>
</g>
<defs>
<clipPath id="clip0_4_42">
<rect width="547" height="548" fill="white"/>
</clipPath>
</defs>
</svg>
